<?xml version="1.0" encoding="utf-8"?>
<!-- Generator: Adobe Illustrator 18.0.0, SVG Export Plug-In . SVG Version: 6.00 Build 0)  -->
<!DOCTYPE svg PUBLIC "-//W3C//DTD SVG 1.1 Tiny//EN" "http://www.w3.org/Graphics/SVG/1.1/DTD/svg11-tiny.dtd">
<svg version="1.1" baseProfile="tiny" id="Layer_1" xmlns="http://www.w3.org/2000/svg" xmlns:xlink="http://www.w3.org/1999/xlink"
	 x="0px" y="0px" viewBox="0 0 800 480" xml:space="preserve">
	<text transform="matrix(1 0 0 1 27.521 124.299)" font-family="'Arial-BoldMT'" font-size="17.5342">Front-end</text>
	<text transform="matrix(1 0 0 1 48.604 145.3408)" font-family="'Arial-BoldMT'" font-size="17.5342">View</text>
	<text transform="matrix(1 0 0 1 176.9795 149.5127)" font-family="'ArialMT'" font-size="13.1507">AJAX POST</text>
	<text transform="matrix(1 0 0 1 188.5439 165.2935)" font-family="'ArialMT'" font-size="13.1507">Request</text>
	<text transform="matrix(1 0 0 1 195.4985 93.6222)" font-family="'ArialMT'" font-size="13.1507">JSON</text>
	<text transform="matrix(1 0 0 1 183.4263 109.4029)" font-family="'ArialMT'" font-size="13.1507">Response</text>
	<text transform="matrix(1 0 0 1 169.7407 28.969)" fill="#C28FDD" font-family="'CourierNewPS-BoldMT'" font-size="13.1507">javascript</text>
	<text transform="matrix(1 0 0 1 172.8491 44.7493)" fill="#C28FDD" font-family="'CourierNewPSMT'" font-size="13.1507">design.js</text>
	<g>
		<rect x="13" y="54" height="190" width="117" fill="none" stroke="#9FC906" stroke-width="3" stroke-dasharray="4.8571,4.8571" />
		<rect x="155" y="54" height="190" width="117" fill="none" stroke="#C28FDD" stroke-width="3" stroke-dasharray="4.8571,4.8571" />
		<rect x="645" y="240" height="70" width="117" fill="none" stroke="#FFC107" stroke-width="3" stroke-dasharray="4.8571,4.8571" />
		<rect x="300" y="54" height="190" width="277" fill="none" stroke="#5496D7" stroke-width="3" stroke-dasharray="4.8571,4.8571" />
		<rect x="160" y="303" height="122" width="417" fill="none" stroke="#3ED4E7" stroke-width="3" stroke-dasharray="4.8571,4.8571" />
	</g>
	<text transform="matrix(1 0 0 1 367.1392 84.8527)" font-family="'Arial-ItalicMT'" font-size="13.1507">(contains</text>
	<text transform="matrix(1 0 0 1 420.5 84.8527)" font-family="'ArialMT'" font-size="13.1507"> </text>
	<text transform="matrix(1 0 0 1 424.1533 84.8527)" fill="#FF912E" font-family="'CourierNewPS-BoldMT'" font-size="15.3425">JOB_ID</text>
	<text transform="matrix(1 0 0 1 479.3955 84.8527)" fill="#FF912E" font-family="'Arial-ItalicMT'" font-size="13.1507"> </text>
	<text transform="matrix(1 0 0 1 483.0488 84.8527)" font-family="'Arial-ItalicMT'" font-size="13.1507">)</text>
	<text transform="matrix(1 0 0 1 314.9429 159.3755)" font-family="'Arial-BoldMT'" font-size="13.1507">parse / test input</text>
	<text transform="matrix(1 0 0 1 415.1348 28.969)" fill="#5496D7" font-family="'CourierNewPS-BoldMT'" font-size="13.1507">python</text>
	<text transform="matrix(1 0 0 1 322.3787 44.7493)" fill="#5496D7" font-family="'CourierNewPSMT'" font-size="13.1507">wrapper_?d.py</text>
	<text transform="matrix(1 0 0 1 431.9747 44.7493)" fill="#5496D7" font-family="'CourierNewPSMT'" font-size="13.1507"> design_?d_run()</text>
	<text transform="matrix(1 0 0 1 367.1836 189.523)" fill="#FF5C2B" font-family="'ArialMT'" font-size="13.1507">error / fail</text>
	<text transform="matrix(1 0 0 1 38.4595 214.8433)" font-family="'ArialMT'" font-size="13.1507">refresh for</text>
	<text transform="matrix(1 0 0 1 35.8911 230.6241)" font-family="'ArialMT'" font-size="13.1507">result page</text>
	<text transform="matrix(1 0 0 1 337.2183 226.2354)" font-family="'Arial-ItalicMT'" font-size="13.1507">error page</text>
	<text transform="matrix(1 0 0 1 473.8555 159.376)" font-family="'Arial-BoldMT'" font-size="13.1507">thread job</text>
	<text transform="matrix(1 0 0 1 477.4902 226.2354)" font-family="'Arial-ItalicMT'" font-size="13.1507">wait page</text>
	<text transform="matrix(1 0 0 1 233.3379 447.6056)" fill="#3ED4E7" font-family="'CourierNewPSMT'" font-size="13.1507">wrapper_?d.py</text>
	<text transform="matrix(1 0 0 1 345.9362 447.6056)" fill="#3ED4E7" font-family="'CourierNewPSMT'" font-size="13.1507"> design_?d_wrapper()</text>
	<text transform="matrix(1 0 0 1 343.8784 463.3859)" fill="#3ED4E7" font-family="'CourierNewPS-BoldMT'" font-size="13.1507">python</text>
	<text transform="matrix(1 0 0 1 493.2188 396.0793)" font-family="'Arial-BoldMT'" font-size="13.1507">run </text>
	<text transform="matrix(1 0 0 1 453.3848 411.8595)" font-family="'Arial-BoldMT'" font-size="13.1507">primerize design</text>
	<text transform="matrix(1 0 0 1 513.4854 367.7287)" fill="#FF5C2B" font-family="'ArialMT'" font-size="13.1507">error / fail</text>
	<text transform="matrix(1 0 0 1 483.5195 333.2111)" font-family="'Arial-ItalicMT'" font-size="13.1507">error page</text>
	<text transform="matrix(1 0 0 1 320.9585 411.1905)" font-family="'Arial-BoldMT'" font-size="13.1507">check result</text>
	<text transform="matrix(1 0 0 1 367.5327 371.881)" fill="#FF5C2B" font-family="'ArialMT'" font-size="13.1507">no solution</text>
	<text transform="matrix(1 0 0 1 342.6938 337.3634)" font-family="'Arial-ItalicMT'" font-size="13.1507">fail page</text>
	<text transform="matrix(1 0 0 1 199.6899 399.3693)" font-family="'Arial-BoldMT'" font-size="13.1507">render</text>
	<text transform="matrix(1 0 0 1 186.5361 415.1495)" font-family="'Arial-BoldMT'" font-size="13.1507">rich result </text>
	<text transform="matrix(1 0 0 1 273.1182 389.4152)" fill="#29BE92" font-family="'ArialMT'" font-size="13.1507">success</text>
	<text transform="matrix(1 0 0 1 188.1665 337.3634)" font-family="'Arial-ItalicMT'" font-size="13.1507">success page</text>
	<text transform="matrix(1 0 0 1 52.6411 28.969)" fill="#9FC906" font-family="'CourierNewPS-BoldMT'" font-size="13.1507">html</text>
	<text transform="matrix(1 0 0 1 25.02 44.7493)" fill="#9FC906" font-family="'CourierNewPSMT'" font-size="13.1507">/design_?d/</text>
	<text transform="matrix(1 0 0 1 680.8037 264.9883)" font-family="'Arial-BoldMT'" font-size="13.1507">update</text>
	<text transform="matrix(1 0 0 1 673.8496 280.7686)" font-family="'Arial-BoldMT'" font-size="13.1507">database</text>
	<text transform="matrix(1 0 0 1 686.2783 296.55)" font-family="'Arial-BoldMT'" font-size="13.1507">entry</text>
	<text transform="matrix(1 0 0 1 615.5479 333.2111)" fill="#FFC107" font-family="'CourierNewPSMT'" font-size="13.1507">primerize/src_design?d</text>
	<text transform="matrix(1 0 0 1 682.6279 348.9924)" fill="#FFC107" font-family="'CourierNewPS-BoldMT'" font-size="13.1507">mysql</text>
	<text transform="matrix(1 0 0 1 73.7803 265.6876)" fill="#FF69BC" font-family="'CourierNewPSMT'" font-size="13.1507">data/?d/result_0123456789abcdef.*</text>
	<text transform="matrix(1 0 0 1 108.4776 293.1514)" fill="#FF69BC" font-family="'CourierNewPS-BoldMT'" font-size="13.1507">file</text>
	<g>
		<line fill="none" stroke="#A7A9AC" stroke-width="2" stroke-miterlimit="10" x1="296.8" y1="156.2" x2="253" y2="156.2"/>
		<g><polygon fill="#A7A9AC" points="308.4,156.2 292.1,149.5 295.9,156.2 292.1,162.8"/></g>
		<line fill="none" stroke="#A7A9AC" stroke-width="2" stroke-miterlimit="10" x1="456.2" y1="156.2" x2="427.3" y2="156.2"/>
		<g><polygon fill="#A7A9AC" points="467.8,156.2 451.5,149.5 455.3,156.2 451.5,162.8"/></g>
		<line fill="none" stroke="#A7A9AC" stroke-width="2" stroke-miterlimit="10" x1="357.2" y1="197.2" x2="357.2" y2="166.8"/>
		<g><polygon fill="#A7A9AC" points="357.2,208.8 363.8,192.3 357.2,196.3 350.5,192.3"/></g>
		<line fill="none" stroke="#A7A9AC" stroke-width="2" stroke-miterlimit="10" x1="503.5" y1="197.2" x2="503.5" y2="166.8"/>
		<g><polygon fill="#A7A9AC" points="503.5,208.8 510.1,192.3 503.5,196.3 496.8,192.3"/></g>
		<line fill="none" stroke="#A7A9AC" stroke-width="2" stroke-miterlimit="10" x1="264.7" y1="97" x2="503.5" y2="97"/>
		<g><polygon fill="#A7A9AC" points="253,97 269.4,103.7 265.5,97 269.4,90.3"/></g>
		<line fill="none" stroke="#A7A9AC" stroke-width="2" stroke-miterlimit="10" x1="503.5" y1="145.2" x2="503.5" y2="97"/>
		<line fill="none" stroke="#FF69BC" stroke-width="2" stroke-miterlimit="10" x1="64" y1="276.2" x2="644.2" y2="276.2"/>
		<g><polygon fill="#FF69BC" points="655.8,276.2 639.5,282.8 643.3,276.2 639.5,269.5"/></g>
		<path fill="none" stroke="#A7A9AC" stroke-width="2" stroke-miterlimit="10" d="M56.4,190.5c6.7,6.7,17.4,6.7,24,0"/>
		<path fill="none" stroke="#A7A9AC" stroke-width="2" stroke-miterlimit="10" d="M80.4,190.5c6.7-6.7,6.7-17.4,0-24"/>
		<path fill="none" stroke="#A7A9AC" stroke-width="2" stroke-miterlimit="10" d="M51.5,177c-0.4,4.8,1.2,9.8,4.9,13.5"/>
		<g><polygon fill="#A7A9AC" points="56.4,166.5 43.9,179 51.6,178 56.3,184.1"/></g>
		<line fill="none" stroke="#A7A9AC" stroke-width="2" stroke-miterlimit="10" x1="503.5" y1="351.1" x2="503.5" y2="381.5"/>
		<g><polygon fill="#A7A9AC" points="503.5,339.5 496.8,355.9 503.5,352 510.1,355.9"/></g>
		<line fill="none" stroke="#A7A9AC" stroke-width="2" stroke-miterlimit="10" x1="601" y1="156.2" x2="545.6" y2="156.2"/>
		<line fill="none" stroke="#A7A9AC" stroke-width="2" stroke-miterlimit="10" x1="357.2" y1="355.3" x2="357.2" y2="385.6"/>
		<g><polygon fill="#A7A9AC" points="357.2,343.7 350.5,360 357.2,356.2 363.8,360"/></g>
		<line fill="none" stroke="#FF69BC" stroke-width="2" stroke-miterlimit="10" x1="357.2" y1="263" x2="357.2" y2="234.2"/>
		<g><polygon fill="#FF69BC" points="357.2,274.6 363.8,258.3 357.2,262.1 350.5,258.3"/></g>
		<line fill="none" stroke="#FF69BC" stroke-width="2" stroke-miterlimit="10" x1="503.5" y1="263" x2="503.5" y2="234.2"/>
		<g><polygon fill="#FF69BC" points="503.5,274.6 510.1,258.3 503.5,262.1 496.8,258.3"/></g>
		<line fill="none" stroke="#A7A9AC" stroke-width="2" stroke-miterlimit="10" x1="418.6" y1="407.1" x2="447.6" y2="407.1"/>
		<g><polygon fill="#A7A9AC" points="407,407.1 423.3,413.8 419.5,407.1 423.3,400.4"/></g>
		<line fill="none" stroke="#A7A9AC" stroke-width="2" stroke-miterlimit="10" x1="218" y1="355.3" x2="218" y2="385.6"/>
		<g><polygon fill="#A7A9AC" points="218,343.7 211.3,360 218,356.2 224.7,360"/></g>
		<line fill="none" stroke="#A7A9AC" stroke-width="2" stroke-miterlimit="10" x1="279.5" y1="407.1" x2="308.4" y2="407.1"/>
		<g><polygon fill="#A7A9AC" points="267.8,407.1 284.2,413.8 280.3,407.1 284.2,400.4"/></g>
		<line fill="none" stroke="#FF69BC" stroke-width="2" stroke-miterlimit="10" x1="218" y1="317.3" x2="218" y2="287.3"/>
		<g><polygon fill="#FF69BC" points="218,275.7 224.7,292.1 218,288.2 211.3,292.1"/></g>
		<line fill="none" stroke="#A7A9AC" stroke-width="2" stroke-miterlimit="10" x1="601" y1="407.1" x2="601" y2="157.3"/>
		<line fill="none" stroke="#A7A9AC" stroke-width="2" stroke-miterlimit="10" x1="578.6" y1="407.1" x2="601" y2="407.1"/>
		<g><polygon fill="#A7A9AC" points="567,407.1 583.3,413.8 579.5,407.1 583.3,400.4"/></g>
		<line fill="none" stroke="#A7A9AC" stroke-width="2" stroke-miterlimit="10" x1="165.8" y1="157.3" x2="119.5" y2="157.3"/>
		<g><polygon fill="#A7A9AC" points="177.4,157.3 161.1,150.6 164.9,157.3 161.1,163.9"/></g>
		<line fill="none" stroke="#A7A9AC" stroke-width="2" stroke-miterlimit="10" x1="124.9" y1="97" x2="171.3" y2="97"/>
		<g><polygon fill="#A7A9AC" points="113.3,97 129.6,103.7 125.8,97 129.6,90.3"/></g>
		<line fill="none" stroke="#FF69BC" stroke-width="2" stroke-miterlimit="10" x1="64" y1="251.2" x2="64" y2="275.7"/>
		<g><polygon fill="#FF69BC" points="64,239.6 57.3,255.9 64,252.1 70.7,255.9"/></g>
		<line fill="none" stroke="#FF69BC" stroke-width="2" stroke-miterlimit="10" x1="503.5" y1="287.9" x2="503.5" y2="316.7"/>
		<g><polygon fill="#FF69BC" points="503.5,276.3 496.8,292.6 503.5,288.8 510.1,292.6"/></g>
		<line fill="none" stroke="#FF69BC" stroke-width="2" stroke-miterlimit="10" x1="357.2" y1="287.9" x2="357.2" y2="316.7"/>
		<g><polygon fill="#FF69BC" points="357.2,276.3 350.5,292.6 357.2,288.8 363.8,292.6"/></g>
	</g>
</svg>
