<?xml version="1.0" encoding="utf-8"?>
<!-- Generator: Adobe Illustrator 18.0.0, SVG Export Plug-In . SVG Version: 6.00 Build 0)  -->
<!DOCTYPE svg PUBLIC "-//W3C//DTD SVG 1.1//EN" "http://www.w3.org/Graphics/SVG/1.1/DTD/svg11.dtd">
<svg version="1.1" id="Layer_1" xmlns="http://www.w3.org/2000/svg" xmlns:xlink="http://www.w3.org/1999/xlink" x="0px" y="0px"
	 viewBox="0 0 800 600" enable-background="new 0 0 800 600" xml:space="preserve">
<text transform="matrix(1 0 0 1 27.521 184.335)" font-family="'Arial-BoldMT'" font-size="17.5342">F</text>
<text transform="matrix(1 0 0 1 38.2314 184.335)" font-family="'Arial-BoldMT'" font-size="17.5342">r</text>
<text transform="matrix(1 0 0 1 45.0552 184.335)" font-family="'Arial-BoldMT'" font-size="17.5342">o</text>
<text transform="matrix(1 0 0 1 55.7656 184.335)" font-family="'Arial-BoldMT'" font-size="17.5342">n</text>
<text transform="matrix(1 0 0 1 66.4766 184.335)" font-family="'Arial-BoldMT'" font-size="17.5342">t</text>
<text transform="matrix(1 0 0 1 72.3155 184.335)" font-family="'Arial-BoldMT'" font-size="17.5342">-</text>
<text transform="matrix(1 0 0 1 78.1543 184.335)" font-family="'Arial-BoldMT'" font-size="17.5342">e</text>
<text transform="matrix(1 0 0 1 87.9062 184.335)" font-family="'Arial-BoldMT'" font-size="17.5342">n</text>
<text transform="matrix(1 0 0 1 98.6172 184.335)" font-family="'Arial-BoldMT'" font-size="17.5342">d</text>
<text transform="matrix(1 0 0 1 48.604 205.3769)" font-family="'Arial-BoldMT'" font-size="17.5342">V</text>
<text transform="matrix(1 0 0 1 59.9824 205.3769)" font-family="'Arial-BoldMT'" font-size="17.5342">i</text>
<text transform="matrix(1 0 0 1 64.854 205.3769)" font-family="'Arial-BoldMT'" font-size="17.5342">e</text>
<text transform="matrix(1 0 0 1 74.606 205.3769)" font-family="'Arial-BoldMT'" font-size="17.5342">w</text>
<text transform="matrix(1 0 0 1 176.9795 209.5488)" font-family="'ArialMT'" font-size="13.1507">A</text>
<text transform="matrix(1 0 0 1 185.751 209.5488)" font-family="'ArialMT'" font-size="13.1507">J</text>
<text transform="matrix(1 0 0 1 192.3262 209.5488)" font-family="'ArialMT'" font-size="13.1507">A</text>
<text transform="matrix(1 0 0 1 201.0976 209.5488)" font-family="'ArialMT'" font-size="13.1507">X</text>
<text transform="matrix(1 0 0 1 209.8692 209.5488)" font-family="'ArialMT'" font-size="13.1507"> </text>
<text transform="matrix(1 0 0 1 213.523 209.5488)" font-family="'ArialMT'" font-size="13.1507">P</text>
<text transform="matrix(1 0 0 1 222.2939 209.5488)" font-family="'ArialMT'" font-size="13.1507">O</text>
<text transform="matrix(1 0 0 1 232.5229 209.5488)" font-family="'ArialMT'" font-size="13.1507">S</text>
<text transform="matrix(1 0 0 1 241.2944 209.5488)" font-family="'ArialMT'" font-size="13.1507">T</text>
<text transform="matrix(1 0 0 1 249.0899 209.5488)" font-family="'ArialMT'" font-size="13.1507"> </text>
<text transform="matrix(1 0 0 1 188.5439 225.3296)" font-family="'ArialMT'" font-size="13.1507">R</text>
<text transform="matrix(1 0 0 1 198.041 225.3296)" font-family="'ArialMT'" font-size="13.1507">e</text>
<text transform="matrix(1 0 0 1 205.355 225.3296)" font-family="'ArialMT'" font-size="13.1507">q</text>
<text transform="matrix(1 0 0 1 212.6689 225.3296)" font-family="'ArialMT'" font-size="13.1507">u</text>
<text transform="matrix(1 0 0 1 219.9824 225.3296)" font-family="'ArialMT'" font-size="13.1507">e</text>
<text transform="matrix(1 0 0 1 227.2964 225.3296)" font-family="'ArialMT'" font-size="13.1507">s</text>
<text transform="matrix(1 0 0 1 233.8716 225.3296)" font-family="'ArialMT'" font-size="13.1507">t</text>
<text transform="matrix(1 0 0 1 195.4985 153.6582)" font-family="'ArialMT'" font-size="13.1507">JSON</text>
<text transform="matrix(1 0 0 1 183.4263 169.439)" font-family="'ArialMT'" font-size="13.1507">Response</text>
<text transform="matrix(1 0 0 1 169.7407 89.0049)" fill="#C28FDD" font-family="'CourierNewPS-BoldMT'" font-size="13.1507">javascript</text>
<text transform="matrix(1 0 0 1 161.8491 104.7852)" fill="#C28FDD" font-family="'CourierNewPSMT'" font-size="13.1507">design_?d.js</text>
<g>
	<polyline fill="none" stroke="#C28FDD" stroke-width="3" stroke-miterlimit="10" points="272.2,302 272.2,304.7 269.5,304.7 	"/>
	
		<line fill="none" stroke="#C28FDD" stroke-width="3" stroke-miterlimit="10" stroke-dasharray="4.8571,4.8571" x1="264.1" y1="304.7" x2="160.3" y2="304.7"/>
	<polyline fill="none" stroke="#C28FDD" stroke-width="3" stroke-miterlimit="10" points="157.7,304.7 155,304.7 155,302 	"/>
	
		<line fill="none" stroke="#C28FDD" stroke-width="3" stroke-miterlimit="10" stroke-dasharray="5.1168,5.1168" x1="155" y1="296.4" x2="155" y2="119.7"/>
	<polyline fill="none" stroke="#C28FDD" stroke-width="3" stroke-miterlimit="10" points="155,117 155,114.2 157.7,114.2 	"/>
	
		<line fill="none" stroke="#C28FDD" stroke-width="3" stroke-miterlimit="10" stroke-dasharray="4.8571,4.8571" x1="163.1" y1="114.2" x2="266.8" y2="114.2"/>
	<polyline fill="none" stroke="#C28FDD" stroke-width="3" stroke-miterlimit="10" points="269.5,114.2 272.2,114.2 272.2,117 	"/>
	
		<line fill="none" stroke="#C28FDD" stroke-width="3" stroke-miterlimit="10" stroke-dasharray="5.1168,5.1168" x1="272.2" y1="122.6" x2="272.2" y2="299.2"/>
</g>
<g>
	<polyline fill="none" stroke="#FFC107" stroke-width="3" stroke-miterlimit="10" points="761,368.2 761,370.9 758.2,370.9 	"/>
	
		<line fill="none" stroke="#FFC107" stroke-width="3" stroke-miterlimit="10" stroke-dasharray="4.8571,4.8571" x1="752.9" y1="370.9" x2="649.1" y2="370.9"/>
	<polyline fill="none" stroke="#FFC107" stroke-width="3" stroke-miterlimit="10" points="646.5,370.9 643.7,370.9 643.7,368.2 	"/>
	
		<line fill="none" stroke="#FFC107" stroke-width="3" stroke-miterlimit="10" stroke-dasharray="5.3782,5.3782" x1="643.7" y1="362.2" x2="643.7" y2="306.2"/>
	<polyline fill="none" stroke="#FFC107" stroke-width="3" stroke-miterlimit="10" points="643.7,303.3 643.7,300.5 646.5,300.5 	"/>
	
		<line fill="none" stroke="#FFC107" stroke-width="3" stroke-miterlimit="10" stroke-dasharray="4.8571,4.8571" x1="651.8" y1="300.5" x2="755.6" y2="300.5"/>
	<polyline fill="none" stroke="#FFC107" stroke-width="3" stroke-miterlimit="10" points="758.2,300.5 761,300.5 761,303.3 	"/>
	
		<line fill="none" stroke="#FFC107" stroke-width="3" stroke-miterlimit="10" stroke-dasharray="5.3782,5.3782" x1="761" y1="309.2" x2="761" y2="365.2"/>
</g>
<text transform="matrix(1 0 0 1 367.1392 144.8887)" font-family="'Arial-ItalicMT'" font-size="13.1507">(contains</text>
<text transform="matrix(1 0 0 1 420.5 144.8887)" font-family="'ArialMT'" font-size="13.1507"> </text>
<text transform="matrix(1 0 0 1 424.1533 144.8887)" fill="#FF912E" font-family="'CourierNewPS-BoldMT'" font-size="15.3425">JOB_ID</text>
<text transform="matrix(1 0 0 1 479.3955 144.8887)" fill="#FF912E" font-family="'Arial-ItalicMT'" font-size="13.1507"> </text>
<text transform="matrix(1 0 0 1 483.0488 144.8887)" font-family="'Arial-ItalicMT'" font-size="13.1507">)</text>
<text transform="matrix(1 0 0 1 314.9429 219.4116)" font-family="'Arial-BoldMT'" font-size="13.1507">parse / test input</text>
<g>
	<polyline fill="none" stroke="#5496D7" stroke-width="3" stroke-miterlimit="10" points="578,304.5 578,307.2 575.2,307.2 	"/>
	
		<line fill="none" stroke="#5496D7" stroke-width="3" stroke-miterlimit="10" stroke-dasharray="5.0824,5.0824" x1="569.8" y1="307.2" x2="305.1" y2="307.2"/>
	<polyline fill="none" stroke="#5496D7" stroke-width="3" stroke-miterlimit="10" points="302.4,307.2 299.6,307.2 299.6,304.5 	"/>
	
		<line fill="none" stroke="#5496D7" stroke-width="3" stroke-miterlimit="10" stroke-dasharray="4.8905,4.8905" x1="299.6" y1="299.1" x2="299.6" y2="119.6"/>
	<polyline fill="none" stroke="#5496D7" stroke-width="3" stroke-miterlimit="10" points="299.6,117 299.6,114.2 302.4,114.2 	"/>
	
		<line fill="none" stroke="#5496D7" stroke-width="3" stroke-miterlimit="10" stroke-dasharray="5.0824,5.0824" x1="307.9" y1="114.2" x2="572.5" y2="114.2"/>
	<polyline fill="none" stroke="#5496D7" stroke-width="3" stroke-miterlimit="10" points="575.2,114.2 578,114.2 578,117 	"/>
	
		<line fill="none" stroke="#5496D7" stroke-width="3" stroke-miterlimit="10" stroke-dasharray="4.8905,4.8905" x1="578" y1="122.4" x2="578" y2="301.9"/>
</g>
<text transform="matrix(1 0 0 1 415.1348 89.0049)" fill="#5496D7" font-family="'CourierNewPS-BoldMT'" font-size="13.1507">python</text>
<text transform="matrix(1 0 0 1 322.3787 104.7852)" fill="#5496D7" font-family="'CourierNewPSMT'" font-size="13.1507">wrapper_?d.py</text>
<text transform="matrix(1 0 0 1 431.9747 104.7852)" fill="#5496D7" font-family="'CourierNewPSMT'" font-size="13.1507"> design_?d_run()</text>
<text transform="matrix(1 0 0 1 367.1836 249.5591)" fill="#FF5C2B" font-family="'ArialMT'" font-size="13.1507">error / fail</text>
<text transform="matrix(1 0 0 1 38.4595 274.8794)" font-family="'ArialMT'" font-size="13.1507">refresh for</text>
<text transform="matrix(1 0 0 1 35.8911 290.6602)" font-family="'ArialMT'" font-size="13.1507">result page</text>
<text transform="matrix(1 0 0 1 337.2183 286.2715)" font-family="'Arial-ItalicMT'" font-size="13.1507">error page</text>
<text transform="matrix(1 0 0 1 473.8555 219.4121)" font-family="'Arial-BoldMT'" font-size="13.1507">thread job</text>
<text transform="matrix(1 0 0 1 477.4902 286.2715)" font-family="'Arial-ItalicMT'" font-size="13.1507">wait page</text>
<g>
	<line fill="none" stroke="#A7A9AC" stroke-width="2" stroke-miterlimit="10" x1="296.8" y1="216.2" x2="253" y2="216.2"/>
	<g>
		<polygon fill="#A7A9AC" points="308.4,216.2 292.1,209.5 295.9,216.2 292.1,222.8 		"/>
	</g>
</g>
<g>
	<line fill="none" stroke="#A7A9AC" stroke-width="2" stroke-miterlimit="10" x1="456.2" y1="216.2" x2="427.3" y2="216.2"/>
	<g>
		<polygon fill="#A7A9AC" points="467.8,216.2 451.5,209.5 455.3,216.2 451.5,222.8 		"/>
	</g>
</g>
<g>
	<line fill="none" stroke="#A7A9AC" stroke-width="2" stroke-miterlimit="10" x1="357.2" y1="257.2" x2="357.2" y2="226.8"/>
	<g>
		<polygon fill="#A7A9AC" points="357.2,268.8 363.8,252.3 357.2,256.3 350.5,252.3 		"/>
	</g>
</g>
<g>
	<line fill="none" stroke="#A7A9AC" stroke-width="2" stroke-miterlimit="10" x1="503.5" y1="257.2" x2="503.5" y2="226.8"/>
	<g>
		<polygon fill="#A7A9AC" points="503.5,268.8 510.1,252.3 503.5,256.3 496.8,252.3 		"/>
	</g>
</g>
<g>
	<line fill="none" stroke="#A7A9AC" stroke-width="2" stroke-miterlimit="10" x1="264.7" y1="157" x2="503.5" y2="157"/>
	<g>
		<polygon fill="#A7A9AC" points="253,157 269.4,163.7 265.5,157 269.4,150.3 		"/>
	</g>
</g>
<line fill="none" stroke="#A7A9AC" stroke-width="2" stroke-miterlimit="10" x1="503.5" y1="205.2" x2="503.5" y2="157"/>
<g>
	<line fill="none" stroke="#FF69BC" stroke-width="2" stroke-miterlimit="10" x1="64" y1="336.2" x2="644.2" y2="336.2"/>
	<g>
		<polygon fill="#FF69BC" points="655.8,336.2 639.5,342.8 643.3,336.2 639.5,329.5 		"/>
	</g>
</g>
<path fill="none" stroke="#A7A9AC" stroke-width="2" stroke-miterlimit="10" d="M56.4,250.5c6.7,6.7,17.4,6.7,24,0"/>
<path fill="none" stroke="#A7A9AC" stroke-width="2" stroke-miterlimit="10" d="M80.4,250.5c6.7-6.7,6.7-17.4,0-24"/>
<g>
	<path fill="none" stroke="#A7A9AC" stroke-width="2" stroke-miterlimit="10" d="M51.5,237c-0.4,4.8,1.2,9.8,4.9,13.5"/>
	<g>
		<polygon fill="#A7A9AC" points="56.4,226.5 43.9,239 51.6,238 56.3,244.1 		"/>
	</g>
</g>
<g>
	<polyline fill="none" stroke="#3ED4E7" stroke-width="3" stroke-miterlimit="10" points="578,483.2 578,486 575.2,486 	"/>
	
		<line fill="none" stroke="#3ED4E7" stroke-width="3" stroke-miterlimit="10" stroke-dasharray="5.0245,5.0245" x1="569.8" y1="486" x2="165" y2="486"/>
	<polyline fill="none" stroke="#3ED4E7" stroke-width="3" stroke-miterlimit="10" points="162.3,486 159.6,486 159.6,483.2 	"/>
	
		<line fill="none" stroke="#3ED4E7" stroke-width="3" stroke-miterlimit="10" stroke-dasharray="5.1125,5.1125" x1="159.6" y1="477.6" x2="159.6" y2="368.4"/>
	<polyline fill="none" stroke="#3ED4E7" stroke-width="3" stroke-miterlimit="10" points="159.6,365.6 159.6,362.9 162.3,362.9 	"/>
	
		<line fill="none" stroke="#3ED4E7" stroke-width="3" stroke-miterlimit="10" stroke-dasharray="5.0245,5.0245" x1="167.8" y1="362.9" x2="572.5" y2="362.9"/>
	<polyline fill="none" stroke="#3ED4E7" stroke-width="3" stroke-miterlimit="10" points="575.2,362.9 578,362.9 578,365.6 	"/>
	
		<line fill="none" stroke="#3ED4E7" stroke-width="3" stroke-miterlimit="10" stroke-dasharray="5.1125,5.1125" x1="578" y1="371.2" x2="578" y2="480.5"/>
</g>
<text transform="matrix(1 0 0 1 233.3379 507.6416)" fill="#3ED4E7" font-family="'CourierNewPSMT'" font-size="13.1507">wrapper_?d.py</text>
<text transform="matrix(1 0 0 1 345.9362 507.6416)" fill="#3ED4E7" font-family="'CourierNewPSMT'" font-size="13.1507"> design_?d_wrapper()</text>
<text transform="matrix(1 0 0 1 343.8784 523.4219)" fill="#3ED4E7" font-family="'CourierNewPS-BoldMT'" font-size="13.1507">python</text>
<text transform="matrix(1 0 0 1 493.2188 456.1153)" font-family="'Arial-BoldMT'" font-size="13.1507">run </text>
<text transform="matrix(1 0 0 1 453.3848 471.8955)" font-family="'Arial-BoldMT'" font-size="13.1507">primerize design</text>
<text transform="matrix(1 0 0 1 513.4854 427.7647)" fill="#FF5C2B" font-family="'ArialMT'" font-size="13.1507">error / fail</text>
<text transform="matrix(1 0 0 1 483.5195 393.2471)" font-family="'Arial-ItalicMT'" font-size="13.1507">error page</text>
<g>
	<line fill="none" stroke="#A7A9AC" stroke-width="2" stroke-miterlimit="10" x1="503.5" y1="411.1" x2="503.5" y2="441.5"/>
	<g>
		<polygon fill="#A7A9AC" points="503.5,399.5 496.8,415.9 503.5,412 510.1,415.9 		"/>
	</g>
</g>
<line fill="none" stroke="#A7A9AC" stroke-width="2" stroke-miterlimit="10" x1="601" y1="216.2" x2="545.6" y2="216.2"/>
<text transform="matrix(1 0 0 1 320.9585 471.2265)" font-family="'Arial-BoldMT'" font-size="13.1507">check result</text>
<text transform="matrix(1 0 0 1 367.5327 431.917)" fill="#FF5C2B" font-family="'ArialMT'" font-size="13.1507">no solution</text>
<text transform="matrix(1 0 0 1 342.6938 397.3994)" font-family="'Arial-ItalicMT'" font-size="13.1507">fail page</text>
<g>
	<line fill="none" stroke="#A7A9AC" stroke-width="2" stroke-miterlimit="10" x1="357.2" y1="415.3" x2="357.2" y2="445.6"/>
	<g>
		<polygon fill="#A7A9AC" points="357.2,403.7 350.5,420 357.2,416.2 363.8,420 		"/>
	</g>
</g>
<g>
	<line fill="none" stroke="#FF69BC" stroke-width="2" stroke-miterlimit="10" x1="357.2" y1="323" x2="357.2" y2="294.2"/>
	<g>
		<polygon fill="#FF69BC" points="357.2,334.6 363.8,318.3 357.2,322.1 350.5,318.3 		"/>
	</g>
</g>
<g>
	<line fill="none" stroke="#FF69BC" stroke-width="2" stroke-miterlimit="10" x1="503.5" y1="323" x2="503.5" y2="294.2"/>
	<g>
		<polygon fill="#FF69BC" points="503.5,334.6 510.1,318.3 503.5,322.1 496.8,318.3 		"/>
	</g>
</g>
<g>
	<line fill="none" stroke="#A7A9AC" stroke-width="2" stroke-miterlimit="10" x1="418.6" y1="467.1" x2="447.6" y2="467.1"/>
	<g>
		<polygon fill="#A7A9AC" points="407,467.1 423.3,473.8 419.5,467.1 423.3,460.4 		"/>
	</g>
</g>
<text transform="matrix(1 0 0 1 199.6899 459.4053)" font-family="'Arial-BoldMT'" font-size="13.1507">render</text>
<text transform="matrix(1 0 0 1 186.5361 475.1855)" font-family="'Arial-BoldMT'" font-size="13.1507">rich result </text>
<text transform="matrix(1 0 0 1 273.1182 449.4512)" fill="#29BE92" font-family="'ArialMT'" font-size="13.1507">success</text>
<text transform="matrix(1 0 0 1 188.1665 397.3994)" font-family="'Arial-ItalicMT'" font-size="13.1507">success page</text>
<g>
	<line fill="none" stroke="#A7A9AC" stroke-width="2" stroke-miterlimit="10" x1="218" y1="415.3" x2="218" y2="445.6"/>
	<g>
		<polygon fill="#A7A9AC" points="218,403.7 211.3,420 218,416.2 224.7,420 		"/>
	</g>
</g>
<g>
	<line fill="none" stroke="#A7A9AC" stroke-width="2" stroke-miterlimit="10" x1="279.5" y1="467.1" x2="308.4" y2="467.1"/>
	<g>
		<polygon fill="#A7A9AC" points="267.8,467.1 284.2,473.8 280.3,467.1 284.2,460.4 		"/>
	</g>
</g>
<g>
	<line fill="none" stroke="#FF69BC" stroke-width="2" stroke-miterlimit="10" x1="218" y1="377.3" x2="218" y2="347.3"/>
	<g>
		<polygon fill="#FF69BC" points="218,335.7 224.7,352.1 218,348.2 211.3,352.1 		"/>
	</g>
</g>
<line fill="none" stroke="#A7A9AC" stroke-width="2" stroke-miterlimit="10" x1="601" y1="467.1" x2="601" y2="217.3"/>
<g>
	<line fill="none" stroke="#A7A9AC" stroke-width="2" stroke-miterlimit="10" x1="578.6" y1="467.1" x2="601" y2="467.1"/>
	<g>
		<polygon fill="#A7A9AC" points="567,467.1 583.3,473.8 579.5,467.1 583.3,460.4 		"/>
	</g>
</g>
<g>
	<line fill="none" stroke="#A7A9AC" stroke-width="2" stroke-miterlimit="10" x1="165.8" y1="217.3" x2="119.5" y2="217.3"/>
	<g>
		<polygon fill="#A7A9AC" points="177.4,217.3 161.1,210.6 164.9,217.3 161.1,223.9 		"/>
	</g>
</g>
<g>
	<line fill="none" stroke="#A7A9AC" stroke-width="2" stroke-miterlimit="10" x1="124.9" y1="157" x2="171.3" y2="157"/>
	<g>
		<polygon fill="#A7A9AC" points="113.3,157 129.6,163.7 125.8,157 129.6,150.3 		"/>
	</g>
</g>
<g>
	<polyline fill="none" stroke="#9FC906" stroke-width="3" stroke-miterlimit="10" points="130.4,302 130.4,304.7 127.7,304.7 	"/>
	
		<line fill="none" stroke="#9FC906" stroke-width="3" stroke-miterlimit="10" stroke-dasharray="4.8571,4.8571" x1="122.4" y1="304.7" x2="18.5" y2="304.7"/>
	<polyline fill="none" stroke="#9FC906" stroke-width="3" stroke-miterlimit="10" points="15.9,304.7 13.2,304.7 13.2,302 	"/>
	
		<line fill="none" stroke="#9FC906" stroke-width="3" stroke-miterlimit="10" stroke-dasharray="5.1168,5.1168" x1="13.2" y1="296.4" x2="13.2" y2="119.7"/>
	<polyline fill="none" stroke="#9FC906" stroke-width="3" stroke-miterlimit="10" points="13.2,117 13.2,114.2 15.9,114.2 	"/>
	
		<line fill="none" stroke="#9FC906" stroke-width="3" stroke-miterlimit="10" stroke-dasharray="4.8571,4.8571" x1="21.3" y1="114.2" x2="125" y2="114.2"/>
	<polyline fill="none" stroke="#9FC906" stroke-width="3" stroke-miterlimit="10" points="127.7,114.2 130.4,114.2 130.4,117 	"/>
	
		<line fill="none" stroke="#9FC906" stroke-width="3" stroke-miterlimit="10" stroke-dasharray="5.1168,5.1168" x1="130.4" y1="122.6" x2="130.4" y2="299.2"/>
</g>
<g>
	<line fill="none" stroke="#FF69BC" stroke-width="2" stroke-miterlimit="10" x1="64" y1="311.2" x2="64" y2="335.7"/>
	<g>
		<polygon fill="#FF69BC" points="64,299.6 57.3,315.9 64,312.1 70.7,315.9 		"/>
	</g>
</g>
<text transform="matrix(1 0 0 1 52.6411 89.0049)" fill="#9FC906" font-family="'CourierNewPS-BoldMT'" font-size="13.1507">html</text>
<text transform="matrix(1 0 0 1 25.02 104.7852)" fill="#9FC906" font-family="'CourierNewPSMT'" font-size="13.1507">/design_?d/</text>
<text transform="matrix(1 0 0 1 73.7803 325.7237)" fill="#FF69BC" font-family="'CourierNewPSMT'" font-size="13.1507">data/?d/result_0123456789abcdef.*</text>
<text transform="matrix(1 0 0 1 680.8037 325.0244)" font-family="'Arial-BoldMT'" font-size="13.1507">update</text>
<text transform="matrix(1 0 0 1 673.8496 340.8047)" font-family="'Arial-BoldMT'" font-size="13.1507">database</text>
<text transform="matrix(1 0 0 1 686.2783 356.586)" font-family="'Arial-BoldMT'" font-size="13.1507">entry</text>
<text transform="matrix(1 0 0 1 615.5479 393.2471)" fill="#FFC107" font-family="'CourierNewPSMT'" font-size="13.1507">primerize/src_design?d</text>
<text transform="matrix(1 0 0 1 682.6279 409.0284)" fill="#FFC107" font-family="'CourierNewPS-BoldMT'" font-size="13.1507">mysql</text>
<g>
	<line fill="none" stroke="#FF69BC" stroke-width="2" stroke-miterlimit="10" x1="503.5" y1="347.9" x2="503.5" y2="376.7"/>
	<g>
		<polygon fill="#FF69BC" points="503.5,336.3 496.8,352.6 503.5,348.8 510.1,352.6 		"/>
	</g>
</g>
<g>
	<line fill="none" stroke="#FF69BC" stroke-width="2" stroke-miterlimit="10" x1="357.2" y1="347.9" x2="357.2" y2="376.7"/>
	<g>
		<polygon fill="#FF69BC" points="357.2,336.3 350.5,352.6 357.2,348.8 363.8,352.6 		"/>
	</g>
</g>
<text transform="matrix(1 0 0 1 108.4776 353.1875)" fill="#FF69BC" font-family="'CourierNewPS-BoldMT'" font-size="13.1507">file</text>
</svg>
