<?xml version="1.0" encoding="utf-8"?>
<!-- Generator: Adobe Illustrator 18.0.0, SVG Export Plug-In . SVG Version: 6.00 Build 0)  -->
<!DOCTYPE svg PUBLIC "-//W3C//DTD SVG 1.1 Tiny//EN" "http://www.w3.org/Graphics/SVG/1.1/DTD/svg11-tiny.dtd">
<svg version="1.1" baseProfile="tiny" id="Layer_1" xmlns="http://www.w3.org/2000/svg" xmlns:xlink="http://www.w3.org/1999/xlink"
	 x="0px" y="0px" viewBox="0 0 504.6 235.2" xml:space="preserve">
	<g>
		<line fill="none" stroke="#D5D5D5" stroke-width="2" stroke-miterlimit="10" stroke-dasharray="6.1511,6.1511" x1="379.2" y1="36.3" x2="379.2" y2="217.8"/>
		<line fill="none" stroke="#D5D5D5" stroke-width="2" stroke-miterlimit="10" stroke-dasharray="5.9665,5.9665" x1="489" y1="27.2" x2="14.7" y2="27.2"/>
	</g>
	<g>
		<line fill="none" stroke="#A7A9AC" stroke-width="2" stroke-miterlimit="10" x1="267.2" y1="177.3" x2="276.5" y2="177.3"/>
		<line fill="none" stroke="#A7A9AC" stroke-width="2" stroke-miterlimit="10" x1="317.6" y1="164" x2="317.6" y2="144.8"/>
		<line fill="none" stroke="#A7A9AC" stroke-width="2" stroke-miterlimit="10" x1="317.6" y1="124.6" x2="317.6" y2="105.4"/>
		<line fill="none" stroke="#A7A9AC" stroke-width="2" stroke-miterlimit="10" x1="317.6" y1="74.5" x2="317.6" y2="55.3"/>
		<line fill="none" stroke="#A7A9AC" stroke-width="2" stroke-miterlimit="10" x1="58" y1="74.5" x2="58" y2="53.3"/>
		<line fill="none" stroke="#A7A9AC" stroke-width="2" stroke-miterlimit="10" x1="437" y1="162.9" x2="437" y2="182.1"/>
		<line fill="none" stroke="#A7A9AC" stroke-width="2" stroke-miterlimit="10" x1="363.6" y1="99.3" x2="382.8" y2="99.3"/>
		<line fill="none" stroke="#A7A9AC" stroke-width="2" stroke-miterlimit="10" x1="392.2" y1="188.4" x2="378.5" y2="188.4"/>
		<line fill="none" stroke="#A7A9AC" stroke-width="2" stroke-miterlimit="10" x1="438.7" y1="84.3" x2="438.7" y2="55.3"/>
		<line fill="none" stroke="#A7A9AC" stroke-width="2" stroke-miterlimit="10" x1="130.3" y1="108.7" x2="141" y2="108.7"/>
		<line fill="none" stroke="#A7A9AC" stroke-width="2" stroke-miterlimit="10" x1="130.3" y1="98.3" x2="141" y2="98.3"/>
		<line fill="none" stroke="#A7A9AC" stroke-width="2" stroke-miterlimit="10" x1="267.2" y1="87.8" x2="267.2" y2="177.3"/>
		<line fill="none" stroke="#A7A9AC" stroke-width="2" stroke-miterlimit="10" x1="260.4" y1="87.8" x2="267.2" y2="87.8"/>
		<line fill="none" stroke="#A7A9AC" stroke-width="2" stroke-miterlimit="10" x1="259.6" y1="99.3" x2="266.4" y2="99.3"/>
		<line fill="none" stroke="#A7A9AC" stroke-width="2" stroke-miterlimit="10" x1="259.8" y1="109.7" x2="266.7" y2="109.7"/>
		<line fill="none" stroke="#A7A9AC" stroke-width="2" stroke-miterlimit="10" x1="260.1" y1="137.6" x2="266.9" y2="137.6"/>
		<line fill="none" stroke="#A7A9AC" stroke-width="2" stroke-miterlimit="10" x1="260.3" y1="147.8" x2="267.1" y2="147.8"/>
		<line fill="none" stroke="#A7A9AC" stroke-width="2" stroke-miterlimit="10" x1="294.2" y1="11.8" x2="275" y2="11.8"/>
	</g>
	<g>
		<path fill="none" stroke="#A7A9AC" stroke-width="2" stroke-miterlimit="10" d="M312.4,210.7c4.2,4.2,11,4.2,15.1,0"/>
		<path fill="none" stroke="#A7A9AC" stroke-width="2" stroke-miterlimit="10" d="M327.5,210.7c4.2-4.2,4.2-11,0-15.1"/>
		<path fill="none" stroke="#A7A9AC" stroke-width="2" stroke-miterlimit="10" d="M309.3,202.2c-0.3,3,0.8,6.2,3.1,8.5"/>
		<g><polygon fill="#A7A9AC" points="312.4,195.6 304.5,203.4 309.3,202.8 312.3,206.7 "/></g>
		<g><polygon fill="#A7A9AC" points="317.6,171.3 321.8,160.9 317.6,163.4 313.4,160.9 "/></g>
		<g><polygon fill="#A7A9AC" points="317.6,131.9 321.8,121.5 317.6,124 313.4,121.5 "/></g>
		<g><polygon fill="#A7A9AC" points="317.6,81.8 321.8,71.4 317.6,73.9 313.4,71.4 "/></g>
		<g><polygon fill="#A7A9AC" points="58,81.8 62.2,71.4 58,74 53.8,71.4 "/></g>
		<g><polygon fill="#A7A9AC" points="437,155.6 432.8,166 437,163.4 441.2,166 "/></g>
		<g><polygon fill="#A7A9AC" points="356.3,99.3 366.7,103.4 364.2,99.3 366.7,95 "/></g>
		<g><polygon fill="#A7A9AC" points="399.5,188.4 389.1,184.2 391.6,188.4 389.1,192.6 "/></g>
		<g><polygon fill="#A7A9AC" points="438.7,91.7 442.9,81.2 438.7,83.8 434.5,81.2 "/></g>
		<g><polygon fill="#A7A9AC" points="123,108.7 133.4,112.8 130.9,108.7 133.4,104.4 "/></g>
		<g><polygon fill="#A7A9AC" points="123,98.3 133.4,102.5 130.9,98.3 133.4,94.1 "/></g>
		<g><polygon fill="#A7A9AC" points="253,87.8 263.5,92 260.9,87.8 263.5,83.6 "/></g>
		<g><polygon fill="#A7A9AC" points="252.3,99.3 262.7,103.5 260.2,99.3 262.7,95.1 "/></g>
		<g><polygon fill="#A7A9AC" points="252.5,109.7 262.9,113.8 260.4,109.7 262.9,105.4 "/></g>
		<g><polygon fill="#A7A9AC" points="252.7,137.6 263.1,141.8 260.6,137.6 263.1,133.4 "/></g>
		<g><polygon fill="#A7A9AC" points="253,147.8 263.4,152 260.9,147.8 263.4,143.6 "/></g>
		<g><polygon fill="#A7A9AC" points="301.5,11.8 291.1,7.6 293.6,11.8 291.1,16 "/></g>
	</g>
	<text transform="matrix(1 0 0 1 20.4292 48.9158)" font-family="'Arial-BoldMT'" font-size="11.0583">From ?d To ?d</text>
	<text transform="matrix(1 0 0 1 164.1948 48.9158)" font-family="'Arial-BoldMT'" font-size="11.0583">Input Change</text>
	<text transform="matrix(1 0 0 1 294.2676 48.9158)" font-family="'Arial-BoldMT'" font-size="11.0583">Submit Job</text>
	<text transform="matrix(1 0 0 1 329.0547 160.7703)" fill="#29BE92" font-family="'ArialMT'" font-size="8.2938">success</text>
	<text transform="matrix(1 0 0 1 410.7129 48.9158)" font-family="'Arial-BoldMT'" font-size="11.0583">Retrieve Job</text>
	<text transform="matrix(1 0 0 1 177.8911 67.2293)" font-family="'Arial-ItalicMT'" font-size="8.2938">Track Input</text>
	<text transform="matrix(1 0 0 1 148.8628 80.9837)" fill="#9FC906" font-family="'CourierNewPS-BoldMT'" font-size="8.2938">fnTrackInputLength()</text>
	<text transform="matrix(1 0 0 1 146.8628 90.9837)" fill="#9FC906" font-family="'CourierNewPS-BoldMT'" font-size="8.2938">fnTrackInputWarning()</text>
	<text transform="matrix(1 0 0 1 151.3623 100.9832)" fill="#9FC906" font-family="'CourierNewPS-BoldMT'" font-size="8.2938">fnSyncPrimerInput()</text>
	<text transform="matrix(1 0 0 1 143.8628 110.8826)" fill="#9FC906" font-family="'CourierNewPS-BoldMT'" font-size="8.2938">fnSyncStructureInput()</text>
	<text transform="matrix(1 0 0 1 146.3628 140.7806)" fill="#9FC906" font-family="'CourierNewPS-BoldMT'" font-size="8.2938">fnExpandPrimerInput()</text>
	<text transform="matrix(1 0 0 1 131.4639 150.68)" fill="#9FC906" font-family="'CourierNewPS-BoldMT'" font-size="8.2938">fnExpandStructureInput()   </text>
	<text transform="matrix(1 0 0 1 175.6323 126.7547)" font-family="'Arial-ItalicMT'" font-size="8.2938">Expand Input</text>
	<text transform="matrix(1 0 0 1 12.1631 90.9359)" fill="#9FC906" font-family="'CourierNewPS-BoldMT'" font-size="8.2938">fnTrackPrimerLength()</text>
	<text transform="matrix(1 0 0 1 17.1631 100.9359)" fill="#9FC906" font-family="'CourierNewPS-BoldMT'" font-size="8.2938">fnTrackPrimerList()</text>
	<text transform="matrix(1 0 0 1 2.8 110.9354)" fill="#9FC906" font-family="'CourierNewPS-BoldMT'" font-size="8.2938">fnTrackStructureLength()</text>
	<text transform="matrix(1 0 0 1 9.6631 120.9354)" fill="#9FC906" font-family="'CourierNewPS-BoldMT'" font-size="8.2938">fnTrackStructureList()</text>
	<text transform="matrix(1 0 0 1 291.6953 90.9837)" fill="#C28FDD" font-family="'CourierNewPS-BoldMT'" font-size="8.2938">fnOnDisable()</text>
	<text transform="matrix(1 0 0 1 294.1943 100.9827)" fill="#C28FDD" font-family="'CourierNewPS-BoldMT'" font-size="8.2938">fnOnSubmit()</text>
	<text transform="matrix(1 0 0 1 281.6953 140.7806)" fill="#5496D7" font-family="'CourierNewPS-BoldMT'" font-size="8.2938">fnAjaxSubmitJob()</text>
	<text transform="matrix(1 0 0 1 284.1953 180.5779)" fill="#FF69BC" font-family="'CourierNewPS-BoldMT'" font-size="8.2938">fnUpdateFields()</text>
	<text transform="matrix(1 0 0 1 271.7959 190.4774)" fill="#FFCC00" font-family="'CourierNewPS-BoldMT'" font-size="8.2938">fnAjaxRefreshResult()</text>
	<text transform="matrix(1 0 0 1 387.6006 100.9364)" fill="#3ED4E7" font-family="'CourierNewPS-BoldMT'" font-size="8.2938">fnAjaxRetrieveResult()</text>
	<text transform="matrix(1 0 0 1 392.5996 150.7332)" fill="#FF912E" font-family="'CourierNewPS-BoldMT'" font-size="8.2938">fnDrawResultPlates()</text>
	<text transform="matrix(1 0 0 1 402.499 190.5311)" fill="#FFCC00" font-family="'CourierNewPS-BoldMT'" font-size="8.2938">fnAjaxLoadHTML()</text>
	<text transform="matrix(1 0 0 1 191.1738 13.8504)" fill="#FF5C2B" font-family="'CourierNewPS-BoldMT'" font-size="8.2938">callbackLoadD3()</text>
	<text transform="matrix(1 0 0 1 305.0225 13.8504)" fill="#FF5C2B" font-family="'CourierNewPS-BoldMT'" font-size="8.2938">fnOnLoad()</text>
	<text transform="matrix(1 0 0 1 329.0547 69.5741)" font-family="'ArialMT'" font-size="8.2938">AJAX</text>
	<text transform="matrix(1 0 0 1 450.2012 69.5741)" font-family="'ArialMT'" font-size="8.2938">AJAX</text>
	<text transform="matrix(1 0 0 1 20.3589 16.0438)" font-family="'Arial-BoldMT'" font-size="11.0583">Initiate</text>
</svg>
